<svg width="19" height="19" viewBox="0 0 19 19" fill="none" xmlns="http://www.w3.org/2000/svg">
<rect width="19" height="19" stroke="black"/>
<path d="M9.5 4.95027V15.2419M9.5 4.95027C8.57533 4.33594 7.31975 3.95831 5.9375 3.95831C4.55525 3.95831 3.29967 4.33594 2.375 4.95027V15.2419C3.29967 14.6276 4.55525 14.25 5.9375 14.25C7.31975 14.25 8.57533 14.6276 9.5 15.2419M9.5 4.95027C10.4247 4.33594 11.6803 3.95831 13.0625 3.95831C14.4455 3.95831 15.7003 4.33594 16.625 4.95027V15.2419C15.7003 14.6276 14.4455 14.25 13.0625 14.25C11.6803 14.25 10.4247 14.6276 9.5 15.2419" stroke="white" stroke-width="2" stroke-linecap="round" stroke-linejoin="round"/>
</svg>
