<svg width="11" height="17" viewBox="0 0 11 17" fill="none" xmlns="http://www.w3.org/2000/svg">
<rect width="11" height="17" fill="#1E1E1E"/>
<g clip-path="url(#clip0_0_1)">
<rect x="-164" y="-783" width="393" height="852" rx="39" fill="#FBDFAD"/>
<g clip-path="url(#clip1_0_1)">
<rect width="393" height="852" transform="translate(-164 -783)" fill="#FBDFAD"/>
<g opacity="0.8">
<rect x="239.739" y="-756" width="778.376" height="412.719" transform="rotate(89.9021 239.739 -756)" fill="url(#paint0_linear_0_1)"/>
</g>
<g filter="url(#filter0_b_0_1)">
<mask id="path-3-inside-1_0_1" fill="white">
<path d="M-164 -20H229V69H-164V-20Z"/>
</mask>
<path d="M-164 -20H229V69H-164V-20Z" fill="black"/>
<path d="M-164 -19H229V-21H-164V-19Z" fill="#B2AFFE" fill-opacity="0.2" mask="url(#path-3-inside-1_0_1)"/>
</g>
<path d="M0.201037 0.680712C0.201037 0.680712 -0.251297 15.8465 0.201037 16.3011C0.655485 16.7557 10.1777 16.7721 10.6301 16.3011C11.0845 15.83 11.019 0.861722 10.9535 0.294008C10.8901 -0.273706 0.72101 0.049233 0.201037 0.680712ZM10.0382 14.4992C10.0382 14.4992 9.43372 14.4704 9.04057 14.6761C8.64742 14.8818 8.55653 15.7354 8.55653 15.7354H2.71635C2.71635 15.7354 2.71635 15.0587 2.2619 14.528C1.80746 13.9973 0.839378 14.8509 0.839378 14.8509L1.14164 2.54224C1.14164 2.54224 2.01883 2.80758 2.38239 2.54224C2.74594 2.27689 2.38239 1.27517 2.38239 1.27517L9.07016 1.06947C9.07016 1.06947 8.79749 1.65776 9.00887 2.04035C9.22024 2.42294 10.1587 2.92277 10.1587 2.92277L10.0382 14.4951V14.4992Z" fill="white"/>
<path d="M0.201037 0.680712C0.201037 0.680712 -0.251297 15.8465 0.201037 16.3011C0.655485 16.7557 10.1777 16.7721 10.6301 16.3011C11.0845 15.83 11.019 0.861722 10.9535 0.294008C10.8901 -0.273706 0.72101 0.049233 0.201037 0.680712ZM10.0382 14.4992C10.0382 14.4992 9.43372 14.4704 9.04057 14.6761C8.64742 14.8818 8.55653 15.7354 8.55653 15.7354H2.71635C2.71635 15.7354 2.71635 15.0587 2.2619 14.528C1.80746 13.9973 0.839378 14.8509 0.839378 14.8509L1.14164 2.54224C1.14164 2.54224 2.01883 2.80758 2.38239 2.54224C2.74594 2.27689 2.38239 1.27517 2.38239 1.27517L9.07016 1.06947C9.07016 1.06947 8.79749 1.65776 9.00887 2.04035C9.22024 2.42294 10.1587 2.92277 10.1587 2.92277L10.0382 14.4951V14.4992Z" stroke="white"/>
<path d="M5.50019 4.67731C3.43087 4.67731 1.7547 6.31051 1.7547 8.3222C1.7547 10.3339 3.43299 11.9671 5.50019 11.9671C7.5674 11.9671 9.24569 10.3339 9.24569 8.3222C9.24569 6.31051 7.5674 4.67731 5.50019 4.67731ZM5.50019 11.3356C3.7902 11.3356 2.40361 9.98626 2.40361 8.3222C2.40361 6.65814 3.7902 5.30879 5.50019 5.30879C7.21019 5.30879 8.59678 6.65814 8.59678 8.3222C8.59678 9.98626 7.21019 11.3356 5.50019 11.3356Z" fill="white"/>
<path d="M6.42387 6.25696C6.13852 6.13972 5.82992 6.07184 5.50018 6.07184C4.21927 6.07184 3.18567 7.07768 3.18567 8.32418C3.18567 9.57068 4.21927 10.5745 5.50018 10.5745C5.82992 10.5745 6.13852 10.5066 6.42387 10.3893C5.60375 10.0417 5.03305 9.2498 5.03305 8.32418C5.03305 7.39856 5.60375 6.60458 6.42387 6.25696Z" fill="white"/>
<path d="M7.21228 3.26006C7.2313 3.63648 7.30528 3.91828 7.39405 3.91828C7.48283 3.91828 7.55681 3.63648 7.57583 3.26006C7.96264 3.24155 8.25222 3.16955 8.25222 3.08316C8.25222 2.99677 7.96264 2.92478 7.57583 2.90627C7.55681 2.52985 7.48283 2.24805 7.39405 2.24805C7.30528 2.24805 7.2313 2.52985 7.21228 2.90627C6.82547 2.92478 6.53589 2.99677 6.53589 3.08316C6.53589 3.16955 6.82547 3.24155 7.21228 3.26006Z" fill="white"/>
<path d="M6.49363 13.7834C6.48306 13.555 6.43656 13.3823 6.38372 13.3823C6.33088 13.3823 6.28438 13.553 6.27381 13.7834C6.03919 13.7937 5.86163 13.8389 5.86163 13.8903C5.86163 13.9417 6.03707 13.987 6.27381 13.9973C6.28438 14.2256 6.33088 14.3984 6.38372 14.3984C6.43656 14.3984 6.48306 14.2277 6.49363 13.9973C6.72825 13.987 6.90581 13.9417 6.90581 13.8903C6.90581 13.8389 6.73037 13.7937 6.49363 13.7834Z" fill="white"/>
<path d="M4.15165 13.1066C4.1284 12.6273 4.03328 12.2653 3.92126 12.2653C3.80923 12.2653 3.712 12.6253 3.69086 13.1066C3.19837 13.1292 2.82635 13.2218 2.82635 13.3308C2.82635 13.4398 3.19625 13.5344 3.69086 13.555C3.71411 14.0343 3.80923 14.3963 3.92126 14.3963C4.03328 14.3963 4.13051 14.0363 4.15165 13.555C4.64415 13.5324 5.01616 13.4398 5.01616 13.3308C5.01616 13.2218 4.64626 13.1272 4.15165 13.1066Z" fill="white"/>
<path d="M3.30192 3.91828C3.36533 3.91828 3.41818 3.86686 3.41818 3.80515C3.41818 3.74344 3.36533 3.69202 3.30192 3.69202C3.23851 3.69202 3.18567 3.74344 3.18567 3.80515C3.18567 3.86686 3.23851 3.91828 3.30192 3.91828Z" fill="white"/>
<path d="M4.58497 3.08518C4.8217 3.08518 5.01405 2.898 5.01405 2.66762C5.01405 2.43724 4.8217 2.25006 4.58497 2.25006C4.34823 2.25006 4.15588 2.43724 4.15588 2.66762C4.15588 2.898 4.34823 3.08518 4.58497 3.08518Z" fill="white"/>
<path d="M8.29453 12.2674C8.12966 12.2674 7.99438 12.399 7.99438 12.5595C7.99438 12.7199 8.12966 12.8516 8.29453 12.8516C8.4594 12.8516 8.59468 12.7199 8.59468 12.5595C8.59468 12.399 8.4594 12.2674 8.29453 12.2674Z" fill="white"/>
</g>
</g>
<defs>
<filter id="filter0_b_0_1" x="-188" y="-44" width="441" height="137" filterUnits="userSpaceOnUse" color-interpolation-filters="sRGB">
<feFlood flood-opacity="0" result="BackgroundImageFix"/>
<feGaussianBlur in="BackgroundImageFix" stdDeviation="12"/>
<feComposite in2="SourceAlpha" operator="in" result="effect1_backgroundBlur_0_1"/>
<feBlend mode="normal" in="SourceGraphic" in2="effect1_backgroundBlur_0_1" result="shape"/>
</filter>
<linearGradient id="paint0_linear_0_1" x1="628.927" y1="-756" x2="628.991" y2="-343.28" gradientUnits="userSpaceOnUse">
<stop offset="0.480208" stop-color="#210B6E" stop-opacity="0.391579"/>
<stop offset="0.735416" stop-color="#3B13B7" stop-opacity="0.230952"/>
<stop offset="1" stop-color="#4C19E8" stop-opacity="0"/>
</linearGradient>
<clipPath id="clip0_0_1">
<rect x="-164" y="-783" width="393" height="852" rx="39" fill="white"/>
</clipPath>
<clipPath id="clip1_0_1">
<rect width="393" height="852" fill="white" transform="translate(-164 -783)"/>
</clipPath>
</defs>
</svg>
