<svg width="55" height="77" viewBox="0 0 55 77" fill="none" xmlns="http://www.w3.org/2000/svg">
<g clip-path="url(#clip0_118_785)">
<path d="M12.8973 53.4795C12.8973 53.4795 12.5547 57.8639 11.3137 59.3353C10.0727 60.7993 6.73035 60.8815 6.73035 60.8815C6.73035 60.8815 10.6513 61.606 11.7781 62.3454C12.9049 63.0849 13.278 68.5449 13.278 68.5449C13.278 68.5449 13.6358 63.1969 14.7474 62.2633C15.8589 61.3296 19.2317 60.5902 19.2317 60.5902C19.2317 60.5902 15.5011 59.8208 14.519 58.9171C13.5444 58.0208 12.8973 53.4795 12.8973 53.4795Z" fill="white"/>
<path d="M41.6763 53.4795C41.6763 53.4795 41.3337 57.8639 40.0927 59.3353C38.8517 60.7993 35.5094 60.8815 35.5094 60.8815C35.5094 60.8815 39.4304 61.606 40.5572 62.3454C41.684 63.0849 42.057 68.5449 42.057 68.5449C42.057 68.5449 42.4149 63.1969 43.5264 62.2633C44.638 61.3222 48.0108 60.5902 48.0108 60.5902C48.0108 60.5902 44.2802 59.8208 43.298 58.9171C42.3159 58.0133 41.6763 53.4795 41.6763 53.4795Z" fill="white"/>
<path d="M13.278 24.2973C13.278 24.2973 13.6358 18.9494 14.7474 18.0157C15.8589 17.0746 19.2317 16.3426 19.2317 16.3426C19.2317 16.3426 15.5011 15.5733 14.519 14.6695C13.5444 13.7732 12.8973 9.23193 12.8973 9.23193C12.8973 9.23193 12.5547 13.6164 11.3137 15.0878C10.0727 16.5518 6.73035 16.6339 6.73035 16.6339C6.73035 16.6339 10.6513 17.3584 11.7781 18.0979C12.9049 18.8373 13.278 24.2973 13.278 24.2973Z" fill="white"/>
<path d="M41.6763 9.23193C41.6763 9.23193 41.3337 13.6164 40.0927 15.0878C38.8517 16.5518 35.5094 16.6339 35.5094 16.6339C35.5094 16.6339 39.4304 17.3584 40.5572 18.0979C41.684 18.8373 42.057 24.2973 42.057 24.2973C42.057 24.2973 42.4149 18.9494 43.5264 18.0157C44.638 17.0746 48.0108 16.3426 48.0108 16.3426C48.0108 16.3426 44.2802 15.5733 43.298 14.6695C42.3235 13.7732 41.6763 9.23193 41.6763 9.23193Z" fill="white"/>
<path d="M45.5516 36.6813C45.8333 35.1427 42.2398 34.5302 37.2301 34.5676C35.7607 31.184 32.5097 28.7789 28.6496 28.6071C28.4365 21.7131 28.0329 16.4473 27.4924 16.4473C27.4086 16.4473 27.1498 21.7504 26.9214 28.6818C22.2847 29.2495 17.8385 32.5807 17.0543 37.1743C12.5547 38.3395 9.37223 39.796 9.42553 41.3496C9.47121 42.7613 13.0952 43.2916 18.0288 43.1945C18.9043 44.9273 20.2596 46.4212 21.9802 47.4519C23.3811 48.2885 24.9723 48.7292 26.5712 49.0205C26.594 55.6008 26.8376 60.5529 27.4924 60.5529C28.1471 60.5529 28.5354 55.6606 28.7105 49.1325C29.9744 48.9607 31.1316 48.3632 32.3955 47.7955C35.3495 46.4735 37.291 43.6128 37.8772 40.528C42.1788 39.4225 45.2928 38.0781 45.544 36.6813H45.5516ZM41.1053 37.4432C40.9759 38.0706 39.811 38.6831 38.0447 39.2433C38.0599 39.0267 38.0676 38.8175 38.0676 38.6009C38.0676 37.7569 37.9533 36.9353 37.7554 36.1436C39.91 36.3079 41.2576 36.7187 41.1053 37.4357V37.4432ZM13.8794 40.4981C13.849 39.7811 15.0443 39.0939 16.9324 38.4889C16.9324 38.5262 16.9324 38.5636 16.9324 38.6009C16.9324 39.6466 17.0999 40.6699 17.4121 41.6484C15.2955 41.5139 13.9099 41.1554 13.8794 40.4981Z" fill="white"/>
<path d="M45.6963 0H9.30371C4.16459 0 0 4.08565 0 9.12736V67.8726C0 72.9143 4.16459 77 9.30371 77H45.6963C50.8354 77 55 72.9143 55 67.8726V9.12736C55 4.08565 50.8354 0 45.6963 0ZM6.31921 3.15947C7.0425 3.15947 7.63635 3.7346 7.63635 4.45164C7.63635 5.16869 7.05011 5.74382 6.31921 5.74382C5.58832 5.74382 5.00208 5.16869 5.00208 4.45164C5.00208 3.7346 5.58832 3.15947 6.31921 3.15947ZM6.31921 73.96C5.59593 73.96 5.00208 73.3849 5.00208 72.6679C5.00208 71.9508 5.58832 71.3757 6.31921 71.3757C7.05011 71.3757 7.63635 71.9508 7.63635 72.6679C7.63635 73.3849 7.05011 73.96 6.31921 73.96ZM44.8284 71.3832H10.1793C7.3242 71.3832 5.00208 69.1125 5.00208 66.3041V10.6884C5.00208 7.88748 7.31658 5.60937 10.1793 5.60937H44.8207C47.6758 5.60937 49.9979 7.88001 49.9979 10.6884V66.3041C49.9979 69.1051 47.6834 71.3832 44.8207 71.3832H44.8284ZM50.0055 73.96C49.2823 73.96 48.6884 73.3849 48.6884 72.6679C48.6884 71.9508 49.2746 71.3757 50.0055 71.3757C50.7364 71.3757 51.3227 71.9508 51.3227 72.6679C51.3227 73.3849 50.7364 73.96 50.0055 73.96ZM50.0055 5.73635C49.2823 5.73635 48.6884 5.16122 48.6884 4.44417C48.6884 3.72713 49.2746 3.152 50.0055 3.152C50.7364 3.152 51.3227 3.72713 51.3227 4.44417C51.3227 5.16122 50.7364 5.73635 50.0055 5.73635Z" fill="white"/>
</g>
<defs>
<clipPath id="clip0_118_785">
<rect width="55" height="77" fill="white"/>
</clipPath>
</defs>
</svg>
