<svg width="37" height="52" viewBox="0 0 37 52" fill="none" xmlns="http://www.w3.org/2000/svg">
<g clip-path="url(#clip0_118_769)">
<path d="M8.67638 36.1162C8.67638 36.1162 8.4459 39.0771 7.61104 40.0708C6.77619 41.0595 4.52771 41.115 4.52771 41.115C4.52771 41.115 7.16545 41.6042 7.92347 42.1036C8.6815 42.603 8.93247 46.2902 8.93247 46.2902C8.93247 46.2902 9.1732 42.6786 9.92098 42.0481C10.6688 41.4176 12.9377 40.9182 12.9377 40.9182C12.9377 40.9182 10.428 40.3987 9.76733 39.7883C9.11174 39.183 8.67638 36.1162 8.67638 36.1162Z" fill="black"/>
<path d="M28.0369 36.1162C28.0369 36.1162 27.8064 39.0771 26.9715 40.0708C26.1367 41.0595 23.8882 41.115 23.8882 41.115C23.8882 41.115 26.5259 41.6042 27.2839 42.1036C28.042 42.603 28.2929 46.2902 28.2929 46.2902C28.2929 46.2902 28.5337 42.6786 29.2815 42.0481C30.0292 41.4126 32.2982 40.9182 32.2982 40.9182C32.2982 40.9182 29.7885 40.3987 29.1278 39.7883C28.4671 39.178 28.0369 36.1162 28.0369 36.1162Z" fill="black"/>
<path d="M8.93247 16.4084C8.93247 16.4084 9.1732 12.7968 9.92098 12.1663C10.6688 11.5307 12.9377 11.0364 12.9377 11.0364C12.9377 11.0364 10.428 10.5168 9.76733 9.90651C9.11174 9.30121 8.67638 6.23438 8.67638 6.23438C8.67638 6.23438 8.4459 9.19528 7.61104 10.189C6.77619 11.1776 4.52771 11.2331 4.52771 11.2331C4.52771 11.2331 7.16545 11.7224 7.92347 12.2218C8.6815 12.7211 8.93247 16.4084 8.93247 16.4084Z" fill="black"/>
<path d="M28.0369 6.23438C28.0369 6.23438 27.8064 9.19528 26.9715 10.189C26.1367 11.1776 23.8882 11.2331 23.8882 11.2331C23.8882 11.2331 26.5259 11.7224 27.2839 12.2218C28.042 12.7211 28.2929 16.4084 28.2929 16.4084C28.2929 16.4084 28.5337 12.7968 29.2815 12.1663C30.0292 11.5307 32.2982 11.0364 32.2982 11.0364C32.2982 11.0364 29.7885 10.5168 29.1278 9.90651C28.4722 9.30121 28.0369 6.23438 28.0369 6.23438Z" fill="black"/>
<path d="M30.6438 24.772C30.8333 23.7329 28.4158 23.3193 25.0456 23.3445C24.0571 21.0595 21.8701 19.4353 19.2734 19.3193C19.13 14.6635 18.8585 11.1074 18.4948 11.1074C18.4385 11.1074 18.2644 14.6888 18.1107 19.3697C14.9915 19.7531 12.0004 22.0028 11.4728 25.1049C8.44584 25.8918 6.30492 26.8754 6.34078 27.9246C6.37151 28.8779 8.80949 29.2361 12.1284 29.1705C12.7174 30.3407 13.6291 31.3495 14.7867 32.0456C15.7291 32.6106 16.7995 32.9082 17.8751 33.1049C17.8905 37.5488 18.0544 40.8931 18.4948 40.8931C18.9353 40.8931 19.1965 37.5891 19.3143 33.1806C20.1646 33.0646 20.9431 32.661 21.7933 32.2777C23.7806 31.3849 25.0866 29.4529 25.481 27.3697C28.3748 26.6232 30.4697 25.7152 30.6387 24.772H30.6438ZM27.6527 25.2865C27.5656 25.7102 26.7819 26.1238 25.5937 26.5021C25.6039 26.3558 25.609 26.2146 25.609 26.0683C25.609 25.4983 25.5322 24.9435 25.3991 24.4088C26.8485 24.5198 27.7551 24.7972 27.6527 25.2814V25.2865ZM9.33704 27.3495C9.31655 26.8653 10.1207 26.4012 11.3909 25.9927C11.3909 26.0179 11.3909 26.0431 11.3909 26.0683C11.3909 26.7745 11.5036 27.4656 11.7136 28.1263C10.2897 28.0355 9.35753 27.7934 9.33704 27.3495Z" fill="black"/>
<path d="M30.7411 0H6.25886C2.80163 0 0 2.75914 0 6.16394V45.8361C0 49.2409 2.80163 52 6.25886 52H30.7411C34.1984 52 37 49.2409 37 45.8361V6.16394C37 2.75914 34.1984 0 30.7411 0ZM4.25111 2.13367C4.73768 2.13367 5.13718 2.52207 5.13718 3.00631C5.13718 3.49054 4.7428 3.87894 4.25111 3.87894C3.75941 3.87894 3.36503 3.49054 3.36503 3.00631C3.36503 2.52207 3.75941 2.13367 4.25111 2.13367ZM4.25111 49.947C3.76454 49.947 3.36503 49.5586 3.36503 49.0744C3.36503 48.5902 3.75941 48.2018 4.25111 48.2018C4.7428 48.2018 5.13718 48.5902 5.13718 49.0744C5.13718 49.5586 4.7428 49.947 4.25111 49.947ZM30.1573 48.2068H6.84787C4.92719 48.2068 3.36503 46.6734 3.36503 44.7768V7.21816C3.36503 5.32661 4.92207 3.78815 6.84787 3.78815H30.1521C32.0728 3.78815 33.635 5.32156 33.635 7.21816V44.7768C33.635 46.6684 32.0779 48.2068 30.1521 48.2068H30.1573ZM33.6401 49.947C33.1535 49.947 32.754 49.5586 32.754 49.0744C32.754 48.5902 33.1484 48.2018 33.6401 48.2018C34.1318 48.2018 34.5262 48.5902 34.5262 49.0744C34.5262 49.5586 34.1318 49.947 33.6401 49.947ZM33.6401 3.8739C33.1535 3.8739 32.754 3.4855 32.754 3.00126C32.754 2.51702 33.1484 2.12863 33.6401 2.12863C34.1318 2.12863 34.5262 2.51702 34.5262 3.00126C34.5262 3.4855 34.1318 3.8739 33.6401 3.8739Z" fill="black"/>
</g>
<defs>
<clipPath id="clip0_118_769">
<rect width="37" height="52" fill="white"/>
</clipPath>
</defs>
</svg>
