<svg width="73" height="21" viewBox="0 0 73 21" fill="none" xmlns="http://www.w3.org/2000/svg">
<path d="M27.768 11.824L27.784 11.392C27.784 11.0613 27.7573 10.6933 27.704 10.288C27.6613 9.88267 27.64 9.6 27.64 9.44C27.64 9.26933 27.7093 9.104 27.848 8.944C27.9973 8.77333 28.184 8.688 28.408 8.688C28.632 8.688 28.8133 8.77333 28.952 8.944C29.1013 9.104 29.176 9.26933 29.176 9.44C29.176 9.6 29.1493 9.88267 29.096 10.288C29.0533 10.6933 29.032 11.0613 29.032 11.392C29.032 11.7227 29.0533 12.0907 29.096 12.496C29.1493 12.9013 29.176 13.1893 29.176 13.36C29.176 13.52 29.1013 13.6853 28.952 13.856C28.8133 14.016 28.632 14.096 28.408 14.096C28.184 14.096 27.9973 14.016 27.848 13.856C27.7093 13.6853 27.64 13.4933 27.64 13.28V12.944C26.6693 13.712 25.64 14.096 24.552 14.096C23.1653 14.096 21.9973 13.6 21.048 12.608C20.1093 11.6053 19.64 10.3947 19.64 8.976C19.64 7.20533 20.168 5.744 21.224 4.592C22.2907 3.44 23.6453 2.864 25.288 2.864C26.2373 2.864 27.1067 3.05067 27.896 3.424C28.696 3.79733 29.096 4.22933 29.096 4.72C29.096 4.944 29.0213 5.13067 28.872 5.28C28.7333 5.42933 28.5627 5.504 28.36 5.504C28.1573 5.504 27.9547 5.424 27.752 5.264C27.5493 5.104 27.352 4.928 27.16 4.736C26.9787 4.53333 26.6853 4.352 26.28 4.192C25.8853 4.032 25.416 3.952 24.872 3.952C23.6453 3.952 22.6853 4.34133 21.992 5.12C21.2987 5.89867 20.952 6.928 20.952 8.208C20.952 9.488 21.3307 10.608 22.088 11.568C22.856 12.528 23.8533 13.008 25.08 13.008C26.008 13.008 26.904 12.6133 27.768 11.824ZM36.1745 11.856C36.2492 12.048 36.4038 12.3093 36.6385 12.64C36.8838 12.96 37.0065 13.2213 37.0065 13.424C37.0065 13.6267 36.9532 13.792 36.8465 13.92C36.7398 14.0373 36.5958 14.096 36.4145 14.096C35.9772 14.096 35.5878 13.6427 35.2465 12.736L35.1185 12.384C34.5745 13.5253 33.7585 14.096 32.6705 14.096C32.1265 14.096 31.6732 13.9253 31.3105 13.584C30.9585 13.232 30.7825 12.7947 30.7825 12.272C30.7825 11.4613 31.0598 10.7627 31.6145 10.176C32.1692 9.58933 32.8945 9.27467 33.7905 9.232C33.5772 8.85867 33.3372 8.58133 33.0705 8.4C32.8145 8.208 32.5798 8.096 32.3665 8.064C32.1532 8.032 31.9505 8.016 31.7585 8.016C31.5772 8.00533 31.4332 7.96267 31.3265 7.888C31.2198 7.81333 31.1665 7.66933 31.1665 7.456C31.1665 7.232 31.2518 7.05067 31.4225 6.912C31.6038 6.77333 31.8172 6.704 32.0625 6.704C32.7558 6.704 33.4385 7.05067 34.1105 7.744C34.7825 8.43733 35.3692 9.52533 35.8705 11.008L36.1745 11.856ZM33.3905 10.08C33.0065 10.08 32.6598 10.208 32.3505 10.464C32.0518 10.72 31.9025 11.0507 31.9025 11.456C31.9025 11.8613 32.0358 12.2027 32.3025 12.48C32.5798 12.7467 32.9105 12.88 33.2945 12.88C33.6785 12.88 34.0092 12.7467 34.2865 12.48C34.5638 12.2027 34.7025 11.8773 34.7025 11.504C34.7025 11.2373 34.6545 10.992 34.5585 10.768C34.4625 10.5333 34.4038 10.3893 34.3825 10.336C34.1052 10.1653 33.7745 10.08 33.3905 10.08ZM38.4622 12.832C38.4622 8.68267 38.4356 6.20267 38.3823 5.392C38.2863 3.92 38.2383 3.06133 38.2383 2.816C38.2383 2.57067 38.3076 2.37333 38.4463 2.224C38.5956 2.07467 38.7716 2 38.9743 2C39.1769 2 39.3423 2.07467 39.4703 2.224C39.5983 2.37333 39.6623 2.56 39.6623 2.784C39.6623 3.456 39.6356 4.368 39.5823 5.52C39.4756 8.22933 39.4223 10.2453 39.4223 11.568C39.4223 11.888 39.5236 12.1973 39.7263 12.496C39.9396 12.784 40.0463 13.0453 40.0463 13.28C40.0463 13.5147 39.9663 13.712 39.8063 13.872C39.6463 14.0213 39.4649 14.096 39.2623 14.096C38.7289 14.096 38.4622 13.6747 38.4622 12.832ZM46.9558 11.856C47.0304 12.048 47.1851 12.3093 47.4198 12.64C47.6651 12.96 47.7878 13.2213 47.7878 13.424C47.7878 13.6267 47.7344 13.792 47.6278 13.92C47.5211 14.0373 47.3771 14.096 47.1958 14.096C46.7584 14.096 46.3691 13.6427 46.0278 12.736L45.8998 12.384C45.3558 13.5253 44.5398 14.096 43.4518 14.096C42.9078 14.096 42.4544 13.9253 42.0918 13.584C41.7398 13.232 41.5638 12.7947 41.5638 12.272C41.5638 11.4613 41.8411 10.7627 42.3958 10.176C42.9504 9.58933 43.6758 9.27467 44.5718 9.232C44.3584 8.85867 44.1184 8.58133 43.8518 8.4C43.5958 8.208 43.3611 8.096 43.1478 8.064C42.9344 8.032 42.7318 8.016 42.5398 8.016C42.3584 8.00533 42.2144 7.96267 42.1078 7.888C42.0011 7.81333 41.9478 7.66933 41.9478 7.456C41.9478 7.232 42.0331 7.05067 42.2038 6.912C42.3851 6.77333 42.5984 6.704 42.8438 6.704C43.5371 6.704 44.2198 7.05067 44.8918 7.744C45.5638 8.43733 46.1504 9.52533 46.6518 11.008L46.9558 11.856ZM44.1718 10.08C43.7878 10.08 43.4411 10.208 43.1318 10.464C42.8331 10.72 42.6838 11.0507 42.6838 11.456C42.6838 11.8613 42.8171 12.2027 43.0838 12.48C43.3611 12.7467 43.6918 12.88 44.0758 12.88C44.4598 12.88 44.7904 12.7467 45.0677 12.48C45.3451 12.2027 45.4838 11.8773 45.4838 11.504C45.4838 11.2373 45.4358 10.992 45.3398 10.768C45.2438 10.5333 45.1851 10.3893 45.1638 10.336C44.8864 10.1653 44.5558 10.08 44.1718 10.08ZM59.2404 14.096C57.6937 14.096 56.3977 13.552 55.3524 12.464C54.307 11.3653 53.7844 10.0373 53.7844 8.48C53.7844 6.912 54.307 5.584 55.3524 4.496C56.4084 3.408 57.7044 2.864 59.2404 2.864C60.7764 2.864 62.067 3.408 63.1124 4.496C64.1684 5.584 64.6964 6.912 64.6964 8.48C64.6964 10.0373 64.1737 11.3653 63.1284 12.464C62.083 13.552 60.787 14.096 59.2404 14.096ZM57.1444 11.44L57.2404 8.464C57.2404 7.696 57.2244 7.08267 57.1924 6.624C57.1604 6.16533 57.1444 5.888 57.1444 5.792H56.9684C56.851 5.792 56.7497 5.74933 56.6644 5.664C56.579 5.568 56.5364 5.45067 56.5364 5.312C56.5364 5.17333 56.579 5.06133 56.6644 4.976C56.7497 4.89067 56.851 4.848 56.9684 4.848L58.0404 4.912L59.5764 4.848C60.195 4.848 60.7284 4.99733 61.1764 5.296C61.635 5.59467 61.8644 6.048 61.8644 6.656C61.8644 7.25333 61.699 7.74933 61.3684 8.144C61.0377 8.528 60.6324 8.816 60.1524 9.008C60.515 9.18933 60.915 9.54667 61.3524 10.08C61.8004 10.6133 62.0244 11.0667 62.0244 11.44C62.0244 11.632 61.971 11.7867 61.8644 11.904C61.7577 12.0213 61.6084 12.08 61.4164 12.08C61.2244 12.08 61.0697 11.9947 60.9524 11.824C60.8457 11.6427 60.7017 11.376 60.5204 11.024C60.3497 10.6613 60.1417 10.3413 59.8964 10.064C59.3737 9.49867 58.8404 9.136 58.2964 8.976L58.3924 11.44C58.3924 11.632 58.3337 11.7867 58.2164 11.904C58.099 12.0213 57.955 12.08 57.7844 12.08C57.6137 12.08 57.4644 12.0213 57.3364 11.904C57.2084 11.7867 57.1444 11.632 57.1444 11.44ZM59.0644 5.728C58.7657 5.728 58.5417 5.73333 58.3924 5.744C58.3924 5.81867 58.3817 6 58.3604 6.288C58.3177 6.864 58.2964 7.51467 58.2964 8.24C58.595 8.4 58.9204 8.48 59.2724 8.48C59.635 8.48 59.9817 8.35733 60.3124 8.112C60.643 7.86667 60.8084 7.51467 60.8084 7.056C60.8084 6.17067 60.227 5.728 59.0644 5.728ZM59.0804 3.712C57.7897 3.712 56.7284 4.14933 55.8964 5.024C55.0644 5.89867 54.6484 6.99733 54.6484 8.32C54.6484 9.632 55.1124 10.7787 56.0404 11.76C56.979 12.7307 58.0937 13.216 59.3844 13.216C60.6857 13.216 61.7524 12.7787 62.5844 11.904C63.4164 11.0293 63.8324 9.936 63.8324 8.624C63.8324 7.30133 63.363 6.15467 62.4244 5.184C61.4964 4.20267 60.3817 3.712 59.0804 3.712Z" fill="white"/>
<g clip-path="url(#clip0_108_853)">
<path d="M7.09419 2.06512C3.71095 2.44918 1.67657 4.85262 2.04704 7.78186C2.41908 10.7111 5.08989 11.5676 5.08989 11.5676C5.08989 11.5676 4.79384 13.3538 5.38753 13.4971C5.98122 13.6403 6.57491 13.1389 6.57491 13.1389C6.57491 13.1389 6.87096 13.997 7.39024 13.9253C7.91111 13.8537 8.13275 13.1389 8.13275 13.1389C8.13275 13.1389 8.80085 14.2911 9.32013 13.9299C9.83941 13.5687 9.61777 11.496 9.61777 11.496C9.61777 11.496 12.2142 10.5678 12.4374 7.56697C12.6606 4.5661 10.8796 1.63686 7.09419 2.06512ZM9.64152 3.09691C9.64152 3.09691 10.8716 3.44896 10.6088 3.87722C10.3476 4.30548 9.35338 3.55108 9.64152 3.09691ZM6.13954 6.904C5.99389 7.24844 5.72633 7.57611 5.46194 7.83063C5.24188 8.04247 4.96007 8.14459 4.73843 8.35491C4.68302 8.40825 4.59436 8.41435 4.53103 8.3671L4.51679 8.35491L3.56688 7.21186C2.70089 6.40106 3.58905 5.33575 4.47087 6.09016L4.62761 6.12369L4.76693 6.05663C4.98699 5.87069 5.17064 5.69543 5.44453 5.73962C5.68517 5.77772 5.8894 5.84021 6.03821 6.04443C6.21711 6.28981 6.25669 6.6251 6.13954 6.904ZM7.78287 10.0725C7.41558 10.1701 7.10211 9.72351 7.10211 9.72351C7.10211 9.72351 6.65724 10.1762 6.3691 10.0497C6.08096 9.92469 6.99762 8.41282 7.23034 8.41282C7.23034 8.41282 8.14858 9.97498 7.78287 10.0725ZM10.973 6.904C10.8273 7.24844 10.5582 7.57611 10.2954 7.83063C10.0753 8.04247 9.7935 8.14459 9.57186 8.35491C9.51486 8.40825 9.42621 8.41435 9.36446 8.3671L9.34863 8.35491L8.40031 7.21186C7.53431 6.40106 8.42089 5.33575 9.3043 6.09016L9.46103 6.12369L9.59877 6.05663C9.82042 5.87069 10.0041 5.69543 10.278 5.73962C10.5186 5.77772 10.7212 5.84021 10.8701 6.04443C11.0505 6.28981 11.0901 6.6251 10.973 6.904Z" fill="white"/>
<path d="M2.70565 12.1148L2.46976 11.4091C2.23386 11.435 2.23386 12.0888 2.23386 12.0888C2.23386 12.0888 1.47552 12.3403 1.44861 12.4912C1.42328 12.6421 2.23386 12.668 2.23386 12.668C2.23386 12.668 2.26078 13.398 2.46976 13.4239C2.67874 13.4498 2.75789 12.668 2.75789 12.668C2.75789 12.668 3.46399 12.4912 3.46399 12.3159C3.46399 12.1407 2.70565 12.1148 2.70565 12.1148Z" fill="white"/>
<path d="M11.6822 3.03744C11.6126 3.17613 12.3852 3.41846 12.3852 3.41846C12.3852 3.41846 12.1984 4.12714 12.3915 4.20792C12.5846 4.28869 12.887 3.56019 12.887 3.56019C12.887 3.56019 13.6169 3.58153 13.6675 3.41084C13.7182 3.24167 12.9979 3.01306 12.9979 3.01306L12.9757 2.27236C12.743 2.23274 12.553 2.86217 12.553 2.86217C12.553 2.86217 11.7519 2.90028 11.6822 3.03744Z" fill="white"/>
<path d="M13.381 5.53232C13.4839 5.54756 13.5662 5.13912 13.5662 5.13912L14 5.07358C14.0063 4.94404 13.6232 4.88612 13.6232 4.88612C13.6232 4.88612 13.544 4.45177 13.457 4.42433C13.3715 4.3969 13.2844 4.83431 13.2844 4.83431C13.2844 4.83431 12.8554 4.78401 12.8221 4.89527C12.7889 5.00652 13.2385 5.11778 13.2385 5.11778C13.2385 5.11778 13.2781 5.51708 13.3826 5.53232H13.381Z" fill="white"/>
<path d="M2.01697 10.3194C2.08346 10.3194 2.13887 10.2676 2.13887 10.2021C2.13887 10.1365 2.08505 10.0847 2.01697 10.0847C1.94889 10.0847 1.89507 10.1365 1.89507 10.2021C1.89507 10.2676 1.94889 10.3194 2.01697 10.3194Z" fill="white"/>
<path d="M0.625352 11.4106C0.864053 11.4106 1.05756 11.2243 1.05756 10.9946C1.05756 10.7648 0.864053 10.5785 0.625352 10.5785C0.386651 10.5785 0.193146 10.7648 0.193146 10.9946C0.193146 11.2243 0.386651 11.4106 0.625352 11.4106Z" fill="white"/>
<path d="M3.96902 13.4254C3.83603 13.4254 3.72679 13.5291 3.72679 13.6586C3.72679 13.7881 3.83445 13.8918 3.96902 13.8918C4.10359 13.8918 4.21124 13.7881 4.21124 13.6586C4.21124 13.5291 4.10359 13.4254 3.96902 13.4254Z" fill="white"/>
<path d="M13.5409 6.16937C13.3968 6.16937 13.2797 6.28215 13.2797 6.42084C13.2797 6.55953 13.3968 6.67231 13.5409 6.67231C13.685 6.67231 13.8021 6.55953 13.8021 6.42084C13.8021 6.28215 13.685 6.16937 13.5409 6.16937Z" fill="white"/>
<path d="M12.8031 10.9946C12.6116 10.9946 12.458 11.1439 12.458 11.3268C12.458 11.5097 12.6131 11.6591 12.8031 11.6591C12.9931 11.6591 13.1483 11.5097 13.1483 11.3268C13.1483 11.1439 12.9931 10.9946 12.8031 10.9946Z" fill="white"/>
<path d="M9.82517 1.45548C9.93282 1.45548 10.0183 1.37165 10.0183 1.26954V0.185935C10.0183 0.0822992 9.93124 0 9.82517 0C9.71909 0 9.63202 0.0838232 9.63202 0.185935V1.26954C9.63202 1.37318 9.71909 1.45548 9.82517 1.45548Z" fill="white"/>
<path d="M8.25467 1.26347C8.28 1.34272 8.35757 1.39302 8.4399 1.39302C8.4589 1.39302 8.47948 1.38997 8.49847 1.38387C8.5998 1.35339 8.65679 1.24823 8.62513 1.15069L8.31008 0.193583C8.27841 0.0960428 8.16917 0.0411767 8.06627 0.0716579C7.96495 0.102139 7.90795 0.207299 7.93961 0.304839L8.25467 1.26195V1.26347Z" fill="white"/>
<path d="M10.7513 2.05443C10.7909 2.05443 10.8321 2.04224 10.8669 2.01785L11.793 1.35641C11.8785 1.29545 11.8975 1.17809 11.8326 1.0958C11.7693 1.0135 11.6474 0.995208 11.5619 1.05617L10.6358 1.71761C10.5503 1.77857 10.5313 1.89593 10.5946 1.97823C10.6326 2.027 10.6912 2.05443 10.7497 2.05443H10.7513Z" fill="white"/>
<path d="M0.193147 7.41455H1.26654C1.37419 7.41455 1.45969 7.33073 1.45969 7.22862C1.45969 7.12651 1.37261 7.04268 1.26654 7.04268H0.193147C0.0870745 7.04116 0 7.12498 0 7.22862C0 7.33226 0.0870745 7.41455 0.193147 7.41455Z" fill="white"/>
<path d="M0.277054 8.98279L1.53251 8.40365C1.62908 8.35945 1.67025 8.24819 1.62275 8.15522C1.57684 8.06226 1.46127 8.02263 1.36469 8.06835L0.109238 8.6475C0.0126646 8.69169 -0.0284979 8.80295 0.0189973 8.89592C0.0522439 8.96298 0.121904 9.00108 0.193146 9.00108C0.221643 9.00108 0.250141 8.99498 0.277054 8.98279Z" fill="white"/>
</g>
<defs>
<clipPath id="clip0_108_853">
<rect width="14" height="14" fill="white"/>
</clipPath>
</defs>
</svg>
