<svg width="36" height="35" viewBox="0 0 36 35" fill="none" xmlns="http://www.w3.org/2000/svg">
<path d="M6 5.83334V13.125H6.873M6.873 13.125C7.86877 10.7306 9.65352 8.72508 11.9475 7.42272C14.2416 6.12036 16.9152 5.59478 19.5495 5.92834C22.1837 6.2619 24.6297 7.43575 26.5041 9.26593C28.3784 11.0961 29.5753 13.4792 29.907 16.0417M6.873 13.125H13.5M30 29.1667V21.875H29.1285M29.1285 21.875C28.1313 24.268 26.346 26.2719 24.0523 27.5731C21.7585 28.8743 19.0856 29.3993 16.4521 29.0659C13.8187 28.7324 11.3733 27.5594 9.4988 25.7304C7.62431 23.9015 6.42653 21.5198 6.093 18.9583M29.1285 21.875H22.5" stroke="#18181B" stroke-width="3" stroke-linecap="round" stroke-linejoin="round"/>
<path d="M16.9763 18.1805C17.0428 19.5313 17.3011 20.5425 17.6111 20.5425C17.9211 20.5425 18.1795 19.5313 18.2459 18.1805C19.5966 18.1141 20.6078 17.8558 20.6078 17.5457C20.6078 17.2357 19.5966 16.9774 18.2459 16.911C18.1795 15.5602 17.9211 14.549 17.6111 14.549C17.3011 14.549 17.0428 15.5602 16.9763 16.911C15.6256 16.9774 14.6144 17.2357 14.6144 17.5457C14.6144 17.8558 15.6256 18.1141 16.9763 18.1805Z" fill="black"/>
</svg>
