<svg width="174" height="28" viewBox="0 0 174 28" fill="none" xmlns="http://www.w3.org/2000/svg">
<g clip-path="url(#clip0_114_1131)">
<path d="M4.68993 19.4471C4.68993 19.4471 4.56534 21.0414 4.11407 21.5765C3.6628 22.1088 2.4474 22.1387 2.4474 22.1387C2.4474 22.1387 3.87321 22.4022 4.28295 22.6711C4.6927 22.94 4.82836 24.9254 4.82836 24.9254C4.82836 24.9254 4.95848 22.9807 5.36269 22.6412C5.76689 22.3017 6.99336 22.0328 6.99336 22.0328C6.99336 22.0328 5.63677 21.753 5.27963 21.4244C4.92525 21.0985 4.68993 19.4471 4.68993 19.4471Z" fill="white"/>
<path d="M15.155 19.4471C15.155 19.4471 15.0304 21.0414 14.5792 21.5765C14.1279 22.1088 12.9125 22.1387 12.9125 22.1387C12.9125 22.1387 14.3383 22.4022 14.7481 22.6711C15.1578 22.94 15.2935 24.9254 15.2935 24.9254C15.2935 24.9254 15.4236 22.9807 15.8278 22.6412C16.232 22.299 17.4585 22.0328 17.4585 22.0328C17.4585 22.0328 16.1019 21.753 15.7447 21.4244C15.3876 21.0957 15.155 19.4471 15.155 19.4471Z" fill="white"/>
<path d="M4.82836 8.83538C4.82836 8.83538 4.95848 6.89067 5.36269 6.55116C5.76689 6.20893 6.99336 5.94276 6.99336 5.94276C6.99336 5.94276 5.63677 5.663 5.27963 5.33436C4.92525 5.00843 4.68993 3.35706 4.68993 3.35706C4.68993 3.35706 4.56534 4.95139 4.11407 5.48646C3.6628 6.01881 2.4474 6.04868 2.4474 6.04868C2.4474 6.04868 3.87321 6.31214 4.28295 6.58103C4.6927 6.84993 4.82836 8.83538 4.82836 8.83538Z" fill="white"/>
<path d="M15.155 3.35706C15.155 3.35706 15.0304 4.95139 14.5792 5.48646C14.1279 6.01881 12.9125 6.04868 12.9125 6.04868C12.9125 6.04868 14.3383 6.31214 14.7481 6.58103C15.1578 6.84993 15.2935 8.83538 15.2935 8.83538C15.2935 8.83538 15.4236 6.89067 15.8278 6.55116C16.232 6.20893 17.4585 5.94276 17.4585 5.94276C17.4585 5.94276 16.1019 5.663 15.7447 5.33436C15.3904 5.00843 15.155 3.35706 15.155 3.35706Z" fill="white"/>
<path d="M16.5642 13.3386C16.6667 12.7791 15.3599 12.5564 13.5382 12.57C13.0039 11.3396 11.8217 10.465 10.4181 10.4025C10.3405 7.89561 10.1938 5.98077 9.99724 5.98077C9.96678 5.98077 9.87265 7.90919 9.7896 10.4297C8.10355 10.6361 6.48672 11.8475 6.20156 13.5179C4.56534 13.9416 3.40809 14.4712 3.42747 15.0362C3.44408 15.5495 4.76191 15.7423 6.55593 15.707C6.87431 16.3372 7.36712 16.8804 7.99281 17.2552C8.50222 17.5594 9.08085 17.7196 9.66224 17.8256C9.67055 20.2184 9.75914 22.0192 9.99724 22.0192C10.2353 22.0192 10.3765 20.2402 10.4402 17.8663C10.8998 17.8038 11.3206 17.5866 11.7802 17.3801C12.8544 16.8994 13.5604 15.8591 13.7735 14.7374C15.3378 14.3354 16.4701 13.8465 16.5615 13.3386H16.5642ZM14.9474 13.6157C14.9003 13.8438 14.4768 14.0665 13.8344 14.2702C13.84 14.1915 13.8428 14.1154 13.8428 14.0366C13.8428 13.7297 13.8012 13.431 13.7292 13.1431C14.5127 13.2028 15.0028 13.3522 14.9474 13.6129V13.6157ZM5.04707 14.7265C5.036 14.4658 5.47066 14.2159 6.15726 13.9959C6.15726 14.0095 6.15726 14.0231 6.15726 14.0366C6.15726 14.4169 6.21817 14.789 6.33168 15.1448C5.56202 15.0959 5.05815 14.9655 5.04707 14.7265Z" fill="white"/>
<path d="M16.6168 0H3.38317C1.5144 0 0 1.48569 0 3.31904V24.681C0 26.5143 1.5144 28 3.38317 28H16.6168C18.4856 28 20 26.5143 20 24.681V3.31904C20 1.48569 18.4856 0 16.6168 0ZM2.2979 1.1489C2.56091 1.1489 2.77685 1.35804 2.77685 1.61878C2.77685 1.87952 2.56368 2.08866 2.2979 2.08866C2.03212 2.08866 1.81894 1.87952 1.81894 1.61878C1.81894 1.35804 2.03212 1.1489 2.2979 1.1489ZM2.2979 26.8946C2.03488 26.8946 1.81894 26.6854 1.81894 26.4247C1.81894 26.1639 2.03212 25.9548 2.2979 25.9548C2.56368 25.9548 2.77685 26.1639 2.77685 26.4247C2.77685 26.6854 2.56368 26.8946 2.2979 26.8946ZM16.3012 25.9575H3.70155C2.66334 25.9575 1.81894 25.1318 1.81894 24.1106V3.8867C1.81894 2.86817 2.66058 2.03977 3.70155 2.03977H16.2984C17.3367 2.03977 18.1811 2.86546 18.1811 3.8867V24.1106C18.1811 25.1291 17.3394 25.9575 16.2984 25.9575H16.3012ZM18.1838 26.8946C17.9208 26.8946 17.7049 26.6854 17.7049 26.4247C17.7049 26.1639 17.9181 25.9548 18.1838 25.9548C18.4496 25.9548 18.6628 26.1639 18.6628 26.4247C18.6628 26.6854 18.4496 26.8946 18.1838 26.8946ZM18.1838 2.08594C17.9208 2.08594 17.7049 1.87681 17.7049 1.61606C17.7049 1.35532 17.9181 1.14618 18.1838 1.14618C18.4496 1.14618 18.6628 1.35532 18.6628 1.61606C18.6628 1.87681 18.4496 2.08594 18.1838 2.08594Z" fill="white"/>
</g>
<path d="M33.135 8.629C32.641 8.031 32.134 7.732 31.614 7.732C31.2067 7.732 30.8643 7.87067 30.587 8.148C30.3097 8.42533 30.171 8.75467 30.171 9.136C30.171 9.51733 30.2793 9.83367 30.496 10.085C30.7213 10.3363 30.9987 10.5443 31.328 10.709C31.6573 10.8737 32.0127 11.0687 32.394 11.294C32.7753 11.5107 33.1307 11.7403 33.46 11.983C33.7893 12.217 34.0623 12.542 34.279 12.958C34.5043 13.3653 34.617 13.868 34.617 14.466C34.617 15.064 34.5 15.6577 34.266 16.247C34.032 16.8363 33.7243 17.3433 33.343 17.768C32.9617 18.1927 32.524 18.5567 32.03 18.86C31.042 19.4667 30.015 19.77 28.949 19.77C28.2297 19.77 27.6057 19.5923 27.077 19.237C26.5397 18.8817 26.271 18.4787 26.271 18.028C26.271 17.5773 26.4833 17.352 26.908 17.352C27.0727 17.352 27.4063 17.5817 27.909 18.041C28.0997 18.2143 28.3597 18.3703 28.689 18.509C29.027 18.6563 29.3997 18.73 29.807 18.73C30.223 18.73 30.6563 18.652 31.107 18.496C31.5577 18.34 31.978 18.1147 32.368 17.82C32.7667 17.534 33.0873 17.1483 33.33 16.663C33.5727 16.1863 33.694 15.6533 33.694 15.064C33.694 14.466 33.538 13.959 33.226 13.543C32.914 13.127 32.537 12.802 32.095 12.568C31.653 12.334 31.211 12.1087 30.769 11.892C30.327 11.6667 29.95 11.3807 29.638 11.034C29.326 10.6873 29.17 10.267 29.17 9.773C29.17 9.27033 29.2783 8.824 29.495 8.434C29.7203 8.044 30.002 7.74933 30.34 7.55C30.9813 7.15133 31.6183 6.952 32.251 6.952C32.8837 6.952 33.3993 7.09933 33.798 7.394C34.1967 7.68867 34.396 8.02667 34.396 8.408C34.396 8.63333 34.3397 8.80667 34.227 8.928C34.1143 9.04067 33.9843 9.097 33.837 9.097C33.6897 9.097 33.564 9.058 33.46 8.98C33.3647 8.89333 33.2563 8.77633 33.135 8.629ZM41.383 12.1L39.199 12.035C38.9563 12.035 38.263 12.0523 37.119 12.087C36.9457 12.451 36.716 12.9493 36.43 13.582C35.5893 15.454 34.7573 17.014 33.934 18.262C33.2667 19.2673 32.764 19.77 32.426 19.77C32.2787 19.77 32.1573 19.718 32.062 19.614C31.9667 19.5187 31.919 19.3843 31.919 19.211C31.919 19.0377 32.0143 18.834 32.205 18.6C32.387 18.366 32.621 18.1103 32.907 17.833C33.1843 17.5643 33.5527 17.1137 34.012 16.481C34.4627 15.8483 34.896 15.1203 35.312 14.297C35.3813 14.167 35.7323 13.4347 36.365 12.1H36.3C36.1613 12.1 36.04 12.061 35.936 11.983C35.8407 11.8963 35.793 11.7793 35.793 11.632C35.793 11.4847 35.845 11.3633 35.949 11.268C36.053 11.1727 36.1873 11.125 36.352 11.125C36.5253 11.125 36.69 11.1293 36.846 11.138C37.6433 9.50867 38.3713 8.382 39.03 7.758C37.4873 7.87933 36.651 7.94 36.521 7.94C36.3997 7.94 36.2827 7.89667 36.17 7.81C36.066 7.72333 36.014 7.61067 36.014 7.472C36.014 7.32467 36.066 7.20333 36.17 7.108C36.2827 7.004 36.404 6.952 36.534 6.952L39.368 7.03L42.449 6.952C42.605 6.952 42.7307 6.99967 42.826 7.095C42.9213 7.19033 42.969 7.316 42.969 7.472C42.969 7.61933 42.917 7.73633 42.813 7.823C42.7177 7.901 42.592 7.94 42.436 7.94H42.124C42.124 9.32667 42.1803 10.579 42.293 11.697C42.4057 12.815 42.5183 13.6773 42.631 14.284C42.7437 14.8907 42.8 15.2763 42.8 15.441C42.8 15.597 42.748 15.7443 42.644 15.883C42.5487 16.013 42.4187 16.078 42.254 16.078C42.0893 16.078 41.9463 16.0173 41.825 15.896C41.7037 15.7747 41.6343 15.6013 41.617 15.376L41.383 12.1ZM41.149 7.784L40.759 7.771C39.7277 7.901 38.6703 9.02767 37.587 11.151C38.5057 11.1683 39.0863 11.177 39.329 11.177C39.5803 11.177 40.2433 11.1597 41.318 11.125C41.2053 9.63433 41.149 8.52067 41.149 7.784ZM45.5262 11.476C45.5262 11.476 45.5436 12.7847 45.5782 15.402C45.5782 15.584 45.5262 15.7443 45.4222 15.883C45.3269 16.013 45.1882 16.078 45.0062 16.078C44.8242 16.078 44.6769 16.013 44.5642 15.883C44.4516 15.7443 44.3952 15.584 44.3952 15.402L44.4602 11.476L44.3952 7.641C44.3952 7.459 44.4516 7.29867 44.5642 7.16C44.6769 7.02133 44.8242 6.952 45.0062 6.952C45.1882 6.952 45.3269 7.02133 45.4222 7.16C45.5262 7.29 45.5782 7.472 45.5782 7.706C45.5782 7.94 45.5696 8.39933 45.5522 9.084C45.5436 9.76 45.5392 10.1847 45.5392 10.358C46.0246 9.54333 46.7092 8.772 47.5932 8.044C48.4859 7.316 49.1966 6.952 49.7252 6.952C49.9246 6.952 50.0892 7.01267 50.2192 7.134C50.3579 7.25533 50.4272 7.41133 50.4272 7.602C50.4272 7.79267 50.3579 7.94867 50.2192 8.07C50.0892 8.19133 49.9549 8.252 49.8162 8.252C49.6776 8.252 49.5346 8.21733 49.3872 8.148C49.2486 8.07 49.0926 8.031 48.9192 8.031C48.7459 8.031 48.4816 8.161 48.1262 8.421C47.7709 8.681 47.3896 9.02767 46.9822 9.461C46.5922 9.89433 46.2759 10.3017 46.0332 10.683C48.6246 14.0457 51.7576 16.5893 55.4322 18.314C55.9956 18.574 56.2772 18.8687 56.2772 19.198C56.2772 19.3713 56.2166 19.51 56.0952 19.614C55.9739 19.718 55.8049 19.77 55.5882 19.77C55.0509 19.77 54.1496 19.3193 52.8842 18.418C51.6276 17.5167 50.3232 16.4377 48.9712 15.181C48.3559 14.6177 47.7189 13.9807 47.0602 13.27C46.4102 12.5507 45.8989 11.9527 45.5262 11.476ZM53.0746 6.952C53.5772 6.952 53.9716 7.11233 54.2576 7.433C54.5522 7.745 54.6996 8.09167 54.6996 8.473C54.6996 8.84567 54.5956 9.227 54.3876 9.617C54.1882 9.99833 53.9672 10.345 53.7246 10.657C53.4906 10.969 53.2696 11.3417 53.0616 11.775C52.8622 12.2083 52.7626 12.6287 52.7626 13.036C52.7626 13.7553 53.0009 14.2927 53.4776 14.648C53.9542 15.0033 54.5522 15.181 55.2716 15.181C55.6442 15.181 56.0386 15.0987 56.4546 14.934C56.8792 14.7607 57.2129 14.5743 57.4556 14.375C57.5076 13.075 57.5336 12.022 57.5336 11.216C57.5336 10.4013 57.5119 9.61267 57.4686 8.85C57.4339 8.07867 57.4166 7.68 57.4166 7.654C57.4166 7.472 57.4729 7.31167 57.5856 7.173C57.7069 7.02567 57.8586 6.952 58.0406 6.952C58.2226 6.952 58.3699 7.02567 58.4826 7.173C58.6039 7.31167 58.6646 7.472 58.6646 7.654C58.6646 7.68 58.6429 8.07867 58.5996 8.85C58.5649 9.61267 58.5476 10.4577 58.5476 11.385C58.5476 12.3123 58.5649 13.1877 58.5996 14.011C58.6429 14.8343 58.6646 15.3153 58.6646 15.454C58.6646 15.5927 58.6039 15.7313 58.4826 15.87C58.3699 16.0087 58.2226 16.078 58.0406 16.078C57.8586 16.078 57.7069 16.0087 57.5856 15.87C57.4729 15.7313 57.4166 15.5753 57.4166 15.402V15.051C56.5932 15.7357 55.7266 16.078 54.8166 16.078C53.9152 16.078 53.1656 15.844 52.5676 15.376C51.9782 14.908 51.6836 14.2753 51.6836 13.478C51.6836 12.958 51.7876 12.451 51.9956 11.957C52.2122 11.463 52.4462 11.06 52.6976 10.748C53.3736 9.92467 53.7116 9.28333 53.7116 8.824C53.7116 8.23467 53.4039 7.94 52.7886 7.94C52.5459 7.94 52.3466 8.03533 52.1906 8.226C52.0432 8.41667 51.9696 8.67667 51.9696 9.006C51.9696 9.11867 51.9306 9.21833 51.8526 9.305C51.7832 9.383 51.6966 9.422 51.5926 9.422C51.4886 9.422 51.4019 9.383 51.3326 9.305C51.2719 9.21833 51.2416 9.11867 51.2416 9.006C51.2416 8.42533 51.4236 7.94 51.7876 7.55C52.1516 7.15133 52.5806 6.952 53.0746 6.952ZM62.3147 12.581L62.4317 15.402C62.4317 15.5753 62.3711 15.7313 62.2497 15.87C62.1371 16.0087 61.9897 16.078 61.8077 16.078C61.6257 16.078 61.4741 16.0087 61.3527 15.87C61.2401 15.7313 61.1837 15.5927 61.1837 15.454C61.1837 15.3153 61.2011 14.8343 61.2357 14.011C61.2791 13.1877 61.3007 12.3903 61.3007 11.619C61.3007 10.8477 61.2921 10.215 61.2747 9.721C61.2574 9.21833 61.2357 8.81533 61.2097 8.512C61.1924 8.20867 61.1837 8.01367 61.1837 7.927H60.9497C60.8111 7.927 60.6854 7.88367 60.5727 7.797C60.4687 7.70167 60.4167 7.58467 60.4167 7.446C60.4167 7.29867 60.4687 7.18167 60.5727 7.095C60.6854 6.99967 60.7937 6.952 60.8977 6.952C61.0104 6.952 61.1577 6.965 61.3397 6.991C61.5304 7.017 61.7167 7.03 61.8987 7.03L63.8227 6.952C64.3427 6.952 64.8627 7.134 65.3827 7.498C65.6514 7.68867 65.8681 7.96167 66.0327 8.317C66.1974 8.67233 66.2797 9.084 66.2797 9.552C66.2797 10.306 66.0804 10.9343 65.6817 11.437C65.2917 11.931 64.8194 12.295 64.2647 12.529C64.7067 12.7457 65.1487 13.1183 65.5907 13.647C66.0414 14.167 66.5137 14.7953 67.0077 15.532C67.5104 16.2687 67.8961 16.7973 68.1647 17.118C68.4334 17.4387 68.7367 17.729 69.0747 17.989C69.4127 18.2577 69.6511 18.457 69.7897 18.587C69.9284 18.7257 69.9977 18.8903 69.9977 19.081C69.9977 19.2717 69.9241 19.432 69.7767 19.562C69.6294 19.7007 69.4344 19.77 69.1917 19.77C68.8624 19.77 68.4984 19.523 68.0997 19.029C67.7097 18.535 67.3111 17.937 66.9037 17.235C66.4964 16.533 66.0674 15.831 65.6167 15.129C65.1747 14.4183 64.6634 13.816 64.0827 13.322C63.5021 12.828 62.9127 12.581 62.3147 12.581ZM63.1857 7.849L62.4317 7.862C62.4317 7.95733 62.4187 8.15667 62.3927 8.46C62.3407 9.24867 62.3147 10.254 62.3147 11.476V11.827C62.7481 11.9483 63.0514 12.009 63.2247 12.009C63.4067 12.009 63.5757 11.996 63.7317 11.97C63.8877 11.9353 64.0654 11.8747 64.2647 11.788C64.4641 11.6927 64.6417 11.5757 64.7977 11.437C64.9537 11.2983 65.0837 11.1077 65.1877 10.865C65.3004 10.6223 65.3567 10.345 65.3567 10.033C65.3567 9.28767 65.1444 8.73733 64.7197 8.382C64.3037 8.02667 63.7924 7.849 63.1857 7.849ZM73.7687 12.1L71.5847 12.035C71.3421 12.035 70.6487 12.0523 69.5047 12.087C69.3314 12.451 69.1017 12.9493 68.8157 13.582C67.9751 15.454 67.1431 17.014 66.3197 18.262C65.6524 19.2673 65.1497 19.77 64.8117 19.77C64.6644 19.77 64.5431 19.718 64.4477 19.614C64.3524 19.5187 64.3047 19.3843 64.3047 19.211C64.3047 19.0377 64.4001 18.834 64.5907 18.6C64.7727 18.366 65.0067 18.1103 65.2927 17.833C65.5701 17.5643 65.9384 17.1137 66.3977 16.481C66.8484 15.8483 67.2817 15.1203 67.6977 14.297C67.7671 14.167 68.1181 13.4347 68.7507 12.1H68.6857C68.5471 12.1 68.4257 12.061 68.3217 11.983C68.2264 11.8963 68.1787 11.7793 68.1787 11.632C68.1787 11.4847 68.2307 11.3633 68.3347 11.268C68.4387 11.1727 68.5731 11.125 68.7377 11.125C68.9111 11.125 69.0757 11.1293 69.2317 11.138C70.0291 9.50867 70.7571 8.382 71.4157 7.758C69.8731 7.87933 69.0367 7.94 68.9067 7.94C68.7854 7.94 68.6684 7.89667 68.5557 7.81C68.4517 7.72333 68.3997 7.61067 68.3997 7.472C68.3997 7.32467 68.4517 7.20333 68.5557 7.108C68.6684 7.004 68.7897 6.952 68.9197 6.952L71.7537 7.03L74.8347 6.952C74.9907 6.952 75.1164 6.99967 75.2117 7.095C75.3071 7.19033 75.3547 7.316 75.3547 7.472C75.3547 7.61933 75.3027 7.73633 75.1987 7.823C75.1034 7.901 74.9777 7.94 74.8217 7.94H74.5097C74.5097 9.32667 74.5661 10.579 74.6787 11.697C74.7914 12.815 74.9041 13.6773 75.0167 14.284C75.1294 14.8907 75.1857 15.2763 75.1857 15.441C75.1857 15.597 75.1337 15.7443 75.0297 15.883C74.9344 16.013 74.8044 16.078 74.6397 16.078C74.4751 16.078 74.3321 16.0173 74.2107 15.896C74.0894 15.7747 74.0201 15.6013 74.0027 15.376L73.7687 12.1ZM73.5347 7.784L73.1447 7.771C72.1134 7.901 71.0561 9.02767 69.9727 11.151C70.8914 11.1683 71.4721 11.177 71.7147 11.177C71.9661 11.177 72.6291 11.1597 73.7037 11.125C73.5911 9.63433 73.5347 8.52067 73.5347 7.784ZM83.3174 7.849C83.3174 7.849 83.0878 7.84467 82.6284 7.836C81.4151 7.836 80.8084 8.19133 80.8084 8.902C80.8084 9.38733 81.0554 9.67767 81.5494 9.773C81.8788 9.83367 82.0434 10.007 82.0434 10.293C82.0434 10.449 81.9871 10.5747 81.8744 10.67C81.7704 10.7567 81.6274 10.8 81.4454 10.8C81.0641 10.8 80.7434 10.6397 80.4834 10.319C80.2234 9.98967 80.0934 9.617 80.0934 9.201C80.0934 7.70167 81.3761 6.952 83.9414 6.952H86.5674C86.7061 6.952 86.8274 6.99967 86.9314 7.095C87.0441 7.18167 87.1004 7.303 87.1004 7.459C87.1004 7.615 87.0441 7.74067 86.9314 7.836C86.8274 7.92267 86.7061 7.966 86.5674 7.966L84.5524 7.901C84.4831 9.39167 84.4484 10.579 84.4484 11.463C84.4484 12.3383 84.4658 13.1877 84.5004 14.011C84.5438 14.8343 84.5654 15.3153 84.5654 15.454C84.5654 15.5927 84.5048 15.7313 84.3834 15.87C84.2708 16.0087 84.1234 16.078 83.9414 16.078C83.7594 16.078 83.6078 16.0087 83.4864 15.87C83.3738 15.7313 83.3174 15.5927 83.3174 15.454C83.3174 15.3153 83.3348 14.8343 83.3694 14.011C83.4128 13.1877 83.4344 12.373 83.4344 11.567C83.4344 10.761 83.3954 9.52167 83.3174 7.849ZM93.1164 12.1L90.9324 12.035C90.6897 12.035 89.9964 12.0523 88.8524 12.087C88.6791 12.451 88.4494 12.9493 88.1634 13.582C87.3227 15.454 86.4907 17.014 85.6674 18.262C85.0001 19.2673 84.4974 19.77 84.1594 19.77C84.0121 19.77 83.8907 19.718 83.7954 19.614C83.7001 19.5187 83.6524 19.3843 83.6524 19.211C83.6524 19.0377 83.7477 18.834 83.9384 18.6C84.1204 18.366 84.3544 18.1103 84.6404 17.833C84.9177 17.5643 85.2861 17.1137 85.7454 16.481C86.1961 15.8483 86.6294 15.1203 87.0454 14.297C87.1147 14.167 87.4657 13.4347 88.0984 12.1H88.0334C87.8947 12.1 87.7734 12.061 87.6694 11.983C87.5741 11.8963 87.5264 11.7793 87.5264 11.632C87.5264 11.4847 87.5784 11.3633 87.6824 11.268C87.7864 11.1727 87.9207 11.125 88.0854 11.125C88.2587 11.125 88.4234 11.1293 88.5794 11.138C89.3767 9.50867 90.1047 8.382 90.7634 7.758C89.2207 7.87933 88.3844 7.94 88.2544 7.94C88.1331 7.94 88.0161 7.89667 87.9034 7.81C87.7994 7.72333 87.7474 7.61067 87.7474 7.472C87.7474 7.32467 87.7994 7.20333 87.9034 7.108C88.0161 7.004 88.1374 6.952 88.2674 6.952L91.1014 7.03L94.1824 6.952C94.3384 6.952 94.4641 6.99967 94.5594 7.095C94.6547 7.19033 94.7024 7.316 94.7024 7.472C94.7024 7.61933 94.6504 7.73633 94.5464 7.823C94.4511 7.901 94.3254 7.94 94.1694 7.94H93.8574C93.8574 9.32667 93.9137 10.579 94.0264 11.697C94.1391 12.815 94.2517 13.6773 94.3644 14.284C94.4771 14.8907 94.5334 15.2763 94.5334 15.441C94.5334 15.597 94.4814 15.7443 94.3774 15.883C94.2821 16.013 94.1521 16.078 93.9874 16.078C93.8227 16.078 93.6797 16.0173 93.5584 15.896C93.4371 15.7747 93.3677 15.6013 93.3504 15.376L93.1164 12.1ZM92.8824 7.784L92.4924 7.771C91.4611 7.901 90.4037 9.02767 89.3204 11.151C90.2391 11.1683 90.8197 11.177 91.0624 11.177C91.3137 11.177 91.9767 11.1597 93.0514 11.125C92.9387 9.63433 92.8824 8.52067 92.8824 7.784ZM98.0266 12.581L98.1436 15.402C98.1436 15.5753 98.083 15.7313 97.9616 15.87C97.849 16.0087 97.7016 16.078 97.5196 16.078C97.3376 16.078 97.186 16.0087 97.0646 15.87C96.952 15.7313 96.8956 15.5927 96.8956 15.454C96.8956 15.3153 96.913 14.8343 96.9476 14.011C96.991 13.1877 97.0126 12.3903 97.0126 11.619C97.0126 10.8477 97.004 10.215 96.9866 9.721C96.9693 9.21833 96.9476 8.81533 96.9216 8.512C96.9043 8.20867 96.8956 8.01367 96.8956 7.927H96.6616C96.523 7.927 96.3973 7.88367 96.2846 7.797C96.1806 7.70167 96.1286 7.58467 96.1286 7.446C96.1286 7.29867 96.1806 7.18167 96.2846 7.095C96.3973 6.99967 96.5056 6.952 96.6096 6.952C96.7223 6.952 96.8696 6.965 97.0516 6.991C97.2423 7.017 97.4286 7.03 97.6106 7.03L99.5346 6.952C100.055 6.952 100.575 7.134 101.095 7.498C101.363 7.68867 101.58 7.96167 101.745 8.317C101.909 8.67233 101.992 9.084 101.992 9.552C101.992 10.306 101.792 10.9343 101.394 11.437C101.004 11.931 100.531 12.295 99.9766 12.529C100.419 12.7457 100.861 13.1183 101.303 13.647C101.753 14.167 102.226 14.7953 102.72 15.532C103.222 16.2687 103.608 16.7973 103.877 17.118C104.145 17.4387 104.449 17.729 104.787 17.989C105.125 18.2577 105.363 18.457 105.502 18.587C105.64 18.7257 105.71 18.8903 105.71 19.081C105.71 19.2717 105.636 19.432 105.489 19.562C105.341 19.7007 105.146 19.77 104.904 19.77C104.574 19.77 104.21 19.523 103.812 19.029C103.422 18.535 103.023 17.937 102.616 17.235C102.208 16.533 101.779 15.831 101.329 15.129C100.887 14.4183 100.375 13.816 99.7946 13.322C99.214 12.828 98.6246 12.581 98.0266 12.581ZM98.8976 7.849L98.1436 7.862C98.1436 7.95733 98.1306 8.15667 98.1046 8.46C98.0526 9.24867 98.0266 10.254 98.0266 11.476V11.827C98.46 11.9483 98.7633 12.009 98.9366 12.009C99.1186 12.009 99.2876 11.996 99.4436 11.97C99.5996 11.9353 99.7773 11.8747 99.9766 11.788C100.176 11.6927 100.354 11.5757 100.51 11.437C100.666 11.2983 100.796 11.1077 100.9 10.865C101.012 10.6223 101.069 10.345 101.069 10.033C101.069 9.28767 100.856 8.73733 100.432 8.382C100.016 8.02667 99.5043 7.849 98.8976 7.849ZM106.933 12.152C106.768 11.97 106.686 11.7577 106.686 11.515C106.686 11.2723 106.768 11.0643 106.933 10.891C107.097 10.709 107.292 10.618 107.518 10.618C107.752 10.618 107.947 10.7047 108.103 10.878C108.267 11.0513 108.35 11.2637 108.35 11.515C108.35 11.7577 108.267 11.97 108.103 12.152C107.947 12.3253 107.752 12.412 107.518 12.412C107.292 12.412 107.097 12.3253 106.933 12.152ZM104.281 11.281C104.281 12.3297 104.588 13.244 105.204 14.024C105.828 14.804 106.625 15.194 107.596 15.194C108.566 15.194 109.333 14.8863 109.897 14.271C110.469 13.647 110.755 12.8107 110.755 11.762C110.755 10.7047 110.443 9.786 109.819 9.006C109.203 8.226 108.406 7.836 107.427 7.836C106.456 7.836 105.689 8.148 105.126 8.772C104.562 9.38733 104.281 10.2237 104.281 11.281ZM107.206 16.078C106.079 16.078 105.13 15.675 104.359 14.869C103.596 14.0543 103.215 13.0707 103.215 11.918C103.215 10.4793 103.648 9.292 104.515 8.356C105.381 7.42 106.486 6.952 107.83 6.952C108.956 6.952 109.901 7.35933 110.664 8.174C111.435 8.98 111.821 9.95933 111.821 11.112C111.821 12.5507 111.387 13.738 110.521 14.674C109.654 15.61 108.549 16.078 107.206 16.078ZM115.564 7.849C115.564 7.849 115.334 7.84467 114.875 7.836C113.661 7.836 113.055 8.19133 113.055 8.902C113.055 9.38733 113.302 9.67767 113.796 9.773C114.125 9.83367 114.29 10.007 114.29 10.293C114.29 10.449 114.233 10.5747 114.121 10.67C114.017 10.7567 113.874 10.8 113.692 10.8C113.31 10.8 112.99 10.6397 112.73 10.319C112.47 9.98967 112.34 9.617 112.34 9.201C112.34 7.70167 113.622 6.952 116.188 6.952H118.814C118.952 6.952 119.074 6.99967 119.178 7.095C119.29 7.18167 119.347 7.303 119.347 7.459C119.347 7.615 119.29 7.74067 119.178 7.836C119.074 7.92267 118.952 7.966 118.814 7.966L116.799 7.901C116.729 9.39167 116.695 10.579 116.695 11.463C116.695 12.3383 116.712 13.1877 116.747 14.011C116.79 14.8343 116.812 15.3153 116.812 15.454C116.812 15.5927 116.751 15.7313 116.63 15.87C116.517 16.0087 116.37 16.078 116.188 16.078C116.006 16.078 115.854 16.0087 115.733 15.87C115.62 15.7313 115.564 15.5927 115.564 15.454C115.564 15.3153 115.581 14.8343 115.616 14.011C115.659 13.1877 115.681 12.373 115.681 11.567C115.681 10.761 115.642 9.52167 115.564 7.849Z" fill="white"/>
<defs>
<clipPath id="clip0_114_1131">
<rect width="20" height="28" fill="white"/>
</clipPath>
</defs>
</svg>
