<svg width="14" height="14" viewBox="0 0 14 14" fill="none" xmlns="http://www.w3.org/2000/svg">
<g clip-path="url(#clip0_64_1941)">
<path d="M7.09418 2.06512C3.71094 2.44918 1.67656 4.85262 2.04702 7.78186C2.41907 10.7111 5.08988 11.5676 5.08988 11.5676C5.08988 11.5676 4.79383 13.3538 5.38752 13.4971C5.98121 13.6403 6.5749 13.1389 6.5749 13.1389C6.5749 13.1389 6.87095 13.997 7.39023 13.9253C7.91109 13.8537 8.13274 13.1389 8.13274 13.1389C8.13274 13.1389 8.80084 14.2911 9.32012 13.9299C9.8394 13.5687 9.61775 11.496 9.61775 11.496C9.61775 11.496 12.2142 10.5678 12.4374 7.56697C12.6606 4.5661 10.8795 1.63686 7.09418 2.06512ZM9.6415 3.09691C9.6415 3.09691 10.8716 3.44896 10.6088 3.87722C10.3476 4.30548 9.35336 3.55108 9.6415 3.09691ZM6.13952 6.904C5.99387 7.24844 5.72631 7.57611 5.46192 7.83063C5.24186 8.04247 4.96006 8.14459 4.73841 8.35491C4.683 8.40825 4.59435 8.41435 4.53102 8.3671L4.51677 8.35491L3.56687 7.21186C2.70087 6.40106 3.58903 5.33575 4.47086 6.09016L4.62759 6.12369L4.76691 6.05663C4.98697 5.87069 5.17062 5.69543 5.44451 5.73962C5.68515 5.77772 5.88938 5.84021 6.0382 6.04443C6.2171 6.28981 6.25668 6.6251 6.13952 6.904ZM7.78286 10.0725C7.41556 10.1701 7.10209 9.72351 7.10209 9.72351C7.10209 9.72351 6.65722 10.1762 6.36908 10.0497C6.08095 9.92469 6.9976 8.41282 7.23033 8.41282C7.23033 8.41282 8.14857 9.97498 7.78286 10.0725ZM10.9729 6.904C10.8273 7.24844 10.5582 7.57611 10.2954 7.83063C10.0753 8.04247 9.79349 8.14459 9.57184 8.35491C9.51485 8.40825 9.42619 8.41435 9.36445 8.3671L9.34861 8.35491L8.40029 7.21186C7.5343 6.40106 8.42088 5.33575 9.30429 6.09016L9.46102 6.12369L9.59876 6.05663C9.8204 5.87069 10.004 5.69543 10.2779 5.73962C10.5186 5.77772 10.7212 5.84021 10.87 6.04443C11.0505 6.28981 11.0901 6.6251 10.9729 6.904Z" fill="white"/>
<path d="M2.70562 12.1148L2.46973 11.4091C2.23383 11.435 2.23383 12.0888 2.23383 12.0888C2.23383 12.0888 1.47549 12.3403 1.44858 12.4912C1.42325 12.6421 2.23383 12.668 2.23383 12.668C2.23383 12.668 2.26075 13.398 2.46973 13.4239C2.67871 13.4498 2.75786 12.668 2.75786 12.668C2.75786 12.668 3.46396 12.4912 3.46396 12.3159C3.46396 12.1407 2.70562 12.1148 2.70562 12.1148Z" fill="white"/>
<path d="M11.6822 3.03744C11.6126 3.17613 12.3852 3.41846 12.3852 3.41846C12.3852 3.41846 12.1984 4.12714 12.3915 4.20792C12.5846 4.28869 12.887 3.56019 12.887 3.56019C12.887 3.56019 13.6169 3.58153 13.6675 3.41084C13.7182 3.24167 12.9979 3.01306 12.9979 3.01306L12.9757 2.27236C12.743 2.23274 12.553 2.86217 12.553 2.86217C12.553 2.86217 11.7519 2.90028 11.6822 3.03744Z" fill="white"/>
<path d="M13.381 5.53232C13.4839 5.54756 13.5662 5.13912 13.5662 5.13912L14 5.07358C14.0063 4.94404 13.6232 4.88612 13.6232 4.88612C13.6232 4.88612 13.5441 4.45177 13.457 4.42433C13.3715 4.3969 13.2844 4.83431 13.2844 4.83431C13.2844 4.83431 12.8554 4.78401 12.8221 4.89527C12.7889 5.00652 13.2385 5.11778 13.2385 5.11778C13.2385 5.11778 13.2781 5.51708 13.3826 5.53232H13.381Z" fill="white"/>
<path d="M2.01698 10.3194C2.08348 10.3194 2.13889 10.2676 2.13889 10.2021C2.13889 10.1365 2.08506 10.0847 2.01698 10.0847C1.94891 10.0847 1.89508 10.1365 1.89508 10.2021C1.89508 10.2676 1.94891 10.3194 2.01698 10.3194Z" fill="white"/>
<path d="M0.625382 11.4106C0.864083 11.4106 1.05759 11.2243 1.05759 10.9946C1.05759 10.7648 0.864083 10.5785 0.625382 10.5785C0.386682 10.5785 0.193176 10.7648 0.193176 10.9946C0.193176 11.2243 0.386682 11.4106 0.625382 11.4106Z" fill="white"/>
<path d="M3.96903 13.4254C3.83605 13.4254 3.72681 13.5291 3.72681 13.6586C3.72681 13.7881 3.83446 13.8918 3.96903 13.8918C4.1036 13.8918 4.21126 13.7881 4.21126 13.6586C4.21126 13.5291 4.1036 13.4254 3.96903 13.4254Z" fill="white"/>
<path d="M13.5409 6.16937C13.3968 6.16937 13.2797 6.28215 13.2797 6.42084C13.2797 6.55953 13.3968 6.67231 13.5409 6.67231C13.685 6.67231 13.8021 6.55953 13.8021 6.42084C13.8021 6.28215 13.685 6.16937 13.5409 6.16937Z" fill="white"/>
<path d="M12.8031 10.9946C12.6116 10.9946 12.458 11.1439 12.458 11.3268C12.458 11.5097 12.6132 11.6591 12.8031 11.6591C12.9931 11.6591 13.1483 11.5097 13.1483 11.3268C13.1483 11.1439 12.9931 10.9946 12.8031 10.9946Z" fill="white"/>
<path d="M9.82517 1.45548C9.93282 1.45548 10.0183 1.37165 10.0183 1.26954V0.185935C10.0183 0.0822992 9.93124 0 9.82517 0C9.71909 0 9.63202 0.0838232 9.63202 0.185935V1.26954C9.63202 1.37318 9.71909 1.45548 9.82517 1.45548Z" fill="white"/>
<path d="M8.25465 1.26347C8.27998 1.34272 8.35756 1.39302 8.43988 1.39302C8.45888 1.39302 8.47946 1.38997 8.49846 1.38387C8.59978 1.35339 8.65678 1.24823 8.62511 1.15069L8.31006 0.193583C8.2784 0.0960428 8.16916 0.0411767 8.06625 0.0716579C7.96493 0.102139 7.90794 0.207299 7.9396 0.304839L8.25465 1.26195V1.26347Z" fill="white"/>
<path d="M10.7514 2.05443C10.7909 2.05443 10.8321 2.04224 10.8669 2.01785L11.7931 1.35641C11.8786 1.29545 11.8976 1.17809 11.8327 1.0958C11.7693 1.0135 11.6474 0.995208 11.5619 1.05617L10.6358 1.71761C10.5503 1.77857 10.5313 1.89593 10.5946 1.97823C10.6326 2.027 10.6912 2.05443 10.7498 2.05443H10.7514Z" fill="white"/>
<path d="M0.193147 7.41455H1.26654C1.37419 7.41455 1.45969 7.33073 1.45969 7.22862C1.45969 7.12651 1.37261 7.04268 1.26654 7.04268H0.193147C0.0870745 7.04116 0 7.12498 0 7.22862C0 7.33226 0.0870745 7.41455 0.193147 7.41455Z" fill="white"/>
<path d="M0.277039 8.98279L1.5325 8.40365C1.62907 8.35945 1.67023 8.24819 1.62274 8.15522C1.57682 8.06226 1.46125 8.02263 1.36468 8.06835L0.109223 8.6475C0.0126493 8.69169 -0.0285132 8.80295 0.018982 8.89592C0.0522286 8.96298 0.121888 9.00108 0.193131 9.00108C0.221628 9.00108 0.250125 8.99498 0.277039 8.98279Z" fill="white"/>
</g>
<defs>
<clipPath id="clip0_64_1941">
<rect width="14" height="14" fill="white"/>
</clipPath>
</defs>
</svg>
