<svg width="11" height="11" viewBox="0 0 11 11" fill="none" xmlns="http://www.w3.org/2000/svg">
<g clip-path="url(#clip0_1_1408)">
<path d="M4.58333 6.41667L5.5 5.5M5.5 5.5L6.41667 4.58333M5.5 5.5L4.58333 4.58333M5.5 5.5L6.41667 6.41667M9.625 5.5C9.625 6.0417 9.5183 6.5781 9.311 7.07857C9.1037 7.57904 8.79986 8.03377 8.41682 8.41682C8.03377 8.79986 7.57904 9.1037 7.07857 9.311C6.5781 9.5183 6.0417 9.625 5.5 9.625C4.9583 9.625 4.4219 9.5183 3.92143 9.311C3.42096 9.1037 2.96623 8.79986 2.58318 8.41682C2.20014 8.03377 1.8963 7.57904 1.689 7.07857C1.4817 6.5781 1.375 6.0417 1.375 5.5C1.375 4.40598 1.8096 3.35677 2.58318 2.58318C3.35677 1.8096 4.40598 1.375 5.5 1.375C6.59402 1.375 7.64323 1.8096 8.41682 2.58318C9.1904 3.35677 9.625 4.40598 9.625 5.5Z" stroke="#18181B" stroke-linecap="round" stroke-linejoin="round"/>
</g>
<defs>
<clipPath id="clip0_1_1408">
<rect width="11" height="11" fill="white"/>
</clipPath>
</defs>
</svg>
